<?xml version="1.0" encoding="UTF-8"?>
<svg id="Layer_1" xmlns="http://www.w3.org/2000/svg" version="1.1" viewBox="0 0 12.03 11.26">
  <!-- Generator: Adobe Illustrator 30.2.1, SVG Export Plug-In . SVG Version: 2.1.1 Build 1)  -->
  <defs>
    <style>
      .st0 {
        fill: #fff;
      }
    </style>
  </defs>
  <path class="st0" d="M2.06,0h1.49c-.51,1.13-.88,2.18-1.11,3.14-.19.82-.29,1.69-.29,2.61,0,1.79.46,3.62,1.39,5.51h-1.49c-.76-1.07-1.29-2.05-1.6-2.92s-.46-1.78-.46-2.73.16-1.93.48-2.82S1.33.97,2.06,0Z"/>
  <path class="st0" d="M11.55,2.79c.32.89.48,1.83.48,2.82s-.15,1.86-.46,2.73-.84,1.84-1.6,2.92h-1.49c.93-1.89,1.39-3.72,1.39-5.51,0-.93-.1-1.8-.29-2.61-.23-.96-.6-2.01-1.11-3.14h1.49c.73.97,1.25,1.9,1.57,2.79Z"/>
</svg>